<?xml version="1.0" standalone="no"?>
<!DOCTYPE svg PUBLIC "-//W3C//DTD SVG 20010904//EN"
 "http://www.w3.org/TR/2001/REC-SVG-20010904/DTD/svg10.dtd">
<svg version="1.0" xmlns="http://www.w3.org/2000/svg"
 width="500.000000pt" height="500.000000pt" viewBox="0 0 500.000000 500.000000"
 preserveAspectRatio="xMidYMid meet">

<g transform="translate(0.000000,500.000000) scale(0.100000,-0.100000)"
fill="#000000" stroke="none">
<path d="M2609 4986 c7 -8 8 -17 3 -20 -10 -6 -10 -46 1 -63 4 -6 3 -14 -1
-17 -10 -6 -10 -46 1 -63 4 -6 3 -14 -1 -17 -10 -6 -10 -46 1 -63 4 -6 3 -14
-1 -17 -10 -6 -10 -46 1 -63 4 -6 3 -14 -1 -17 -10 -6 -10 -46 1 -63 4 -6 3
-14 -1 -17 -10 -6 -10 -46 1 -63 4 -6 3 -14 -1 -17 -10 -6 -10 -46 1 -63 4 -6
3 -14 -1 -17 -10 -6 -10 -46 1 -63 4 -6 3 -14 -1 -17 -10 -6 -10 -46 1 -63 4
-6 3 -14 -1 -17 -10 -6 -10 -46 1 -63 4 -6 3 -14 -1 -17 -10 -6 -10 -46 1 -63
4 -6 3 -14 -1 -17 -10 -6 -10 -46 1 -63 4 -6 3 -14 -1 -17 -10 -6 -10 -46 1
-63 4 -6 3 -14 -1 -17 -10 -6 -10 -46 1 -63 4 -6 3 -14 -1 -17 -10 -6 -10 -46
1 -63 4 -6 3 -14 -1 -17 -10 -6 -10 -46 1 -63 4 -6 3 -14 -1 -17 -10 -6 -10
-46 1 -63 4 -6 3 -14 -1 -17 -10 -6 -10 -46 1 -63 4 -6 3 -14 -1 -17 -10 -6
-10 -52 1 -62 4 -4 2 -13 -3 -20 -8 -9 17 -12 116 -13 186 -3 262 -22 334 -87
53 -48 75 -110 74 -204 -1 -89 -28 -156 -80 -198 -37 -29 -42 -42 -19 -42 29
0 112 -49 139 -81 15 -17 28 -30 30 -28 1 2 13 24 25 49 32 64 105 135 165
161 99 42 235 35 312 -17 43 -29 42 -29 46 -1 3 21 7 22 126 25 l122 3 0 -346
0 -345 -120 0 -120 0 0 36 0 35 -33 -25 c-91 -69 -212 -86 -322 -45 -63 24
-152 104 -174 157 l-13 32 -28 -43 c-39 -62 -96 -105 -167 -127 -51 -16 -95
-19 -241 -20 -177 -2 -179 -2 -178 -23 1 -12 5 -27 9 -34 4 -6 3 -14 -1 -17
-10 -6 -10 -46 1 -63 4 -6 3 -14 -1 -17 -10 -6 -10 -46 1 -63 4 -6 3 -14 -1
-17 -10 -6 -10 -46 1 -63 4 -6 3 -14 -1 -17 -10 -6 -10 -46 1 -63 4 -6 3 -14
-1 -17 -10 -6 -10 -46 1 -63 4 -6 3 -14 -1 -17 -10 -6 -10 -46 1 -63 4 -6 3
-14 -1 -17 -10 -6 -10 -46 1 -63 4 -6 3 -14 -1 -17 -10 -6 -10 -46 1 -63 4 -6
3 -14 -1 -17 -10 -6 -10 -46 1 -63 4 -6 3 -14 -1 -17 -10 -6 -10 -46 1 -63 4
-6 3 -14 -1 -17 -10 -6 -10 -46 1 -63 4 -6 3 -14 -1 -17 -10 -6 -10 -46 1 -63
4 -6 3 -14 -1 -17 -10 -6 -10 -46 1 -63 4 -6 3 -14 -1 -17 -10 -6 -10 -46 1
-63 4 -6 3 -14 -1 -17 -10 -6 -10 -46 1 -63 4 -6 3 -14 -1 -17 -10 -6 -10 -46
1 -63 4 -6 3 -14 -1 -17 -10 -6 -10 -46 1 -63 4 -6 3 -14 -1 -17 -10 -6 -10
-46 1 -63 4 -6 3 -14 -1 -17 -10 -6 -10 -46 1 -63 4 -6 3 -14 -1 -17 -10 -6
-10 -46 1 -63 4 -6 3 -14 -1 -17 -10 -6 -10 -46 1 -63 4 -6 3 -14 -1 -17 -10
-6 -10 -46 1 -63 4 -6 3 -14 -1 -17 -10 -6 -10 -46 1 -63 4 -6 3 -14 -1 -17
-10 -6 -10 -46 1 -63 4 -6 3 -14 -1 -17 -10 -6 -10 -46 1 -63 4 -6 3 -14 -1
-17 -10 -6 -10 -46 1 -63 4 -6 3 -14 -1 -17 -10 -6 -10 -46 1 -63 4 -6 3 -14
-1 -17 -8 -4 -9 -50 -2 -66 1 -3 2 -8 1 -12 0 -5 537 -8 1194 -8 l1195 0 0
2500 0 2500 -1201 0 c-1026 0 -1200 -2 -1190 -14z m1681 -2091 l0 -575 -120 0
-120 0 0 575 0 575 120 0 120 0 0 -575z m-510 -760 c18 -22 5 -30 -26 -16 -52
23 -61 -19 -13 -65 28 -27 31 -28 40 -11 15 26 31 10 24 -24 -4 -18 -3 -29 4
-29 6 0 11 -7 11 -15 0 -17 -9 -19 -30 -5 -8 5 -19 5 -25 0 -10 -8 -38 -13
-67 -11 -43 3 -65 74 -32 102 8 7 13 21 11 30 -3 10 2 27 10 38 17 25 74 29
93 6z m-915 -38 c24 -18 11 -41 -16 -27 -32 17 -61 -5 -57 -43 3 -30 6 -32 42
-33 47 0 59 -20 21 -34 -34 -13 -72 -3 -90 23 -48 68 34 161 100 114z m314 -4
c11 -10 22 -29 23 -43 3 -23 -1 -25 -49 -30 -42 -4 -51 -8 -44 -19 7 -10 20
-12 50 -7 47 7 54 -5 16 -30 -46 -30 -105 7 -105 67 0 29 6 42 26 58 33 26 55
26 83 4z m-309 -373 c5 -8 10 -41 10 -72 0 -45 -3 -58 -15 -58 -11 0 -15 12
-15 49 0 56 -19 82 -45 61 -10 -8 -15 -30 -15 -61 0 -42 -3 -49 -20 -49 -18 0
-20 7 -20 68 0 38 2 71 4 73 2 2 27 4 56 4 34 0 54 -5 60 -15z m321 10 c31
-17 23 -33 -13 -26 -22 4 -37 1 -50 -10 -38 -35 -12 -78 43 -72 41 4 50 -18
14 -32 -80 -30 -141 65 -80 125 26 27 54 31 86 15z m315 -15 c38 -38 29 -59
-29 -63 -26 -2 -47 -7 -47 -12 0 -16 34 -28 55 -19 30 11 35 11 35 -6 0 -23
-44 -36 -79 -24 -54 19 -65 101 -18 134 31 22 54 19 83 -10z"/>
<path d="M3684 2035 c-11 -27 4 -45 36 -45 36 0 38 9 7 38 -27 26 -36 27 -43
7z"/>
<path d="M3114 2065 c-18 -13 -16 -14 20 -15 33 0 37 2 26 15 -15 19 -21 19
-46 0z"/>
<path d="M3443 1703 c-26 -10 -12 -23 25 -23 35 1 36 2 18 15 -21 16 -24 16
-43 8z"/>
<path d="M2710 3116 l0 -116 41 0 c49 0 99 22 117 51 17 27 18 105 1 125 -19
23 -59 41 -111 48 l-48 7 0 -115z"/>
<path d="M3530 2802 c-53 -26 -80 -74 -80 -141 0 -97 54 -151 151 -151 127 0
195 115 137 230 -39 74 -130 102 -208 62z"/>
<path d="M2710 2644 l0 -127 83 5 c45 3 95 11 110 18 60 29 77 125 31 179 -30
36 -77 51 -161 51 l-63 0 0 -126z"/>
</g>
</svg>
